<?xml version="1.0" encoding="UTF-8" standalone="no"?><svg xmlns="http://www.w3.org/2000/svg" xmlns:xlink="http://www.w3.org/1999/xlink" contentStyleType="text/css" height="1049px" preserveAspectRatio="none" style="width:705px;height:1049px;background:#FFFFFF;" version="1.1" viewBox="0 0 705 1049" width="705px" zoomAndPan="magnify"><defs/><g><!--MD5=[97866166e5ceb090d231688e3566af4d]
cluster ERP--><g id="cluster_ERP"><rect height="201" rx="2.5" ry="2.5" style="stroke:#181818;stroke-width:1.0;fill:none;" width="136" x="439" y="713.5"/><text fill="#000000" font-family="sans-serif" font-size="14" font-weight="bold" lengthAdjust="spacing" textLength="30" x="492" y="728.4951">ERP</text></g><!--MD5=[6749b937c0c22d1a2693ec12ddd6890d]
cluster Сервис централизованной аналитики--><g id="cluster_Сервис централизованной аналитики"><rect height="946" rx="2.5" ry="2.5" style="stroke:#181818;stroke-width:1.0;fill:none;" width="408" x="7" y="97.5"/><text fill="#000000" font-family="sans-serif" font-size="14" font-weight="bold" lengthAdjust="spacing" textLength="313" x="54.5" y="112.4951">Сервис централизованной аналитики</text></g><!--MD5=[cb6d5fcd57e2e58f9a1db57a999ba586]
cluster AP--><g id="cluster_AP"><rect height="309" rx="2.5" ry="2.5" style="stroke:#181818;stroke-width:1.0;fill:none;" width="148" x="243" y="140.5"/><text fill="#000000" font-family="sans-serif" font-size="14" font-weight="bold" lengthAdjust="spacing" textLength="100" x="267" y="155.4951">Admin Panel</text></g><!--MD5=[43e11ae77819885c83b5b603f8dc21c5]
cluster ETL--><g id="cluster_ETL"><rect height="546" rx="2.5" ry="2.5" style="stroke:#181818;stroke-width:1.0;fill:none;" width="360" x="31" y="473.5"/><text fill="#000000" font-family="sans-serif" font-size="14" font-weight="bold" lengthAdjust="spacing" textLength="239" x="91.5" y="488.4951">оркестратор задач (Airflow)</text></g><!--MD5=[19139553fbd8c1b2fb95569992f7d8c4]
cluster dag--><g id="cluster_dag"><path d="M65.5,578.5 L172.5,578.5 A3.75,3.75 0 0 1 175,581 L182,600.7969 L356.5,600.7969 A2.5,2.5 0 0 1 359,603.2969 L359,679 A2.5,2.5 0 0 1 356.5,681.5 L65.5,681.5 A2.5,2.5 0 0 1 63,679 L63,581 A2.5,2.5 0 0 1 65.5,578.5 " style="stroke:#000000;stroke-width:1.5;fill:none;"/><line style="stroke:#000000;stroke-width:1.5;fill:none;" x1="63" x2="182" y1="600.7969" y2="600.7969"/><text fill="#000000" font-family="sans-serif" font-size="14" font-weight="bold" lengthAdjust="spacing" textLength="106" x="67" y="593.4951">Airflow DAGs</text></g><!--MD5=[0cacb005cb15d84f864a5fcd36ec34b1]
cluster Automation platform (Zapier)--><g id="cluster_Automation platform (Zapier)"><rect height="203" rx="2.5" ry="2.5" style="stroke:#181818;stroke-width:1.0;fill:none;" width="260" x="439" y="140.5"/><text fill="#000000" font-family="sans-serif" font-size="14" font-weight="bold" lengthAdjust="spacing" textLength="244" x="447" y="155.4951">Automation platform (Zapier)</text></g><!--MD5=[3134f146646a74eb7ed887868fcb98c5]
entity ERP_prod--><g id="elem_ERP_prod"><path d="M458.5,758.5 C458.5,748.5 503,748.5 503,748.5 C503,748.5 547.5,748.5 547.5,758.5 L547.5,783.7969 C547.5,793.7969 503,793.7969 503,793.7969 C503,793.7969 458.5,793.7969 458.5,783.7969 L458.5,758.5 " fill="#F1F1F1" style="stroke:#181818;stroke-width:0.5;"/><path d="M458.5,758.5 C458.5,768.5 503,768.5 503,768.5 C503,768.5 547.5,768.5 547.5,758.5 " fill="none" style="stroke:#181818;stroke-width:0.5;"/><text fill="#000000" font-family="sans-serif" font-size="14" lengthAdjust="spacing" textLength="69" x="468.5" y="785.4951">ERP_prod</text></g><!--MD5=[d2fbe394c62a86aea95a239470a774a8]
entity ERP_replica--><g id="elem_ERP_replica"><path d="M455,863.5 C455,853.5 507,853.5 507,853.5 C507,853.5 559,853.5 559,863.5 L559,888.7969 C559,898.7969 507,898.7969 507,898.7969 C507,898.7969 455,898.7969 455,888.7969 L455,863.5 " fill="#F1F1F1" style="stroke:#181818;stroke-width:0.5;"/><path d="M455,863.5 C455,873.5 507,873.5 507,873.5 C507,873.5 559,873.5 559,863.5 " fill="none" style="stroke:#181818;stroke-width:0.5;"/><text fill="#000000" font-family="sans-serif" font-size="14" lengthAdjust="spacing" textLength="84" x="465" y="890.4951">ERP_replica</text></g><!--MD5=[8824c66cba45be527cf3dd56bcd70cd2]
entity nginx--><g id="elem_nginx"><rect fill="#F1F1F1" height="46.2969" rx="2.5" ry="2.5" style="stroke:#181818;stroke-width:0.5;" width="79" x="286.5" y="175.5"/><rect fill="#F1F1F1" height="10" style="stroke:#181818;stroke-width:0.5;" width="15" x="345.5" y="180.5"/><rect fill="#F1F1F1" height="2" style="stroke:#181818;stroke-width:0.5;" width="4" x="343.5" y="182.5"/><rect fill="#F1F1F1" height="2" style="stroke:#181818;stroke-width:0.5;" width="4" x="343.5" y="186.5"/><text fill="#000000" font-family="sans-serif" font-size="14" lengthAdjust="spacing" textLength="39" x="301.5" y="208.4951">nginx</text></g><!--MD5=[788ffb02e69a71dda3642c9a267eda8f]
entity webserver--><g id="elem_webserver"><rect fill="#F1F1F1" height="46.2969" rx="2.5" ry="2.5" style="stroke:#181818;stroke-width:0.5;" width="115" x="259.5" y="281.5"/><rect fill="#F1F1F1" height="10" style="stroke:#181818;stroke-width:0.5;" width="15" x="354.5" y="286.5"/><rect fill="#F1F1F1" height="2" style="stroke:#181818;stroke-width:0.5;" width="4" x="352.5" y="288.5"/><rect fill="#F1F1F1" height="2" style="stroke:#181818;stroke-width:0.5;" width="4" x="352.5" y="292.5"/><text fill="#000000" font-family="sans-serif" font-size="14" lengthAdjust="spacing" textLength="75" x="274.5" y="314.4951">webserver</text></g><!--MD5=[645d8587175d8f7ad110cd370775931d]
entity API--><g id="elem_API"><rect fill="#F1F1F1" height="46.2969" rx="2.5" ry="2.5" style="stroke:#181818;stroke-width:0.5;" width="108" x="263" y="387.5"/><rect fill="#F1F1F1" height="10" style="stroke:#181818;stroke-width:0.5;" width="15" x="351" y="392.5"/><rect fill="#F1F1F1" height="2" style="stroke:#181818;stroke-width:0.5;" width="4" x="349" y="394.5"/><rect fill="#F1F1F1" height="2" style="stroke:#181818;stroke-width:0.5;" width="4" x="349" y="398.5"/><text fill="#000000" font-family="sans-serif" font-size="14" lengthAdjust="spacing" textLength="68" x="278" y="420.4951">proxy API</text></g><!--MD5=[6cfba0569f9377fbb6969f8dc87b1d95]
entity airflow--><g id="elem_airflow"><rect fill="#F1F1F1" height="46.2969" rx="2.5" ry="2.5" style="stroke:#181818;stroke-width:0.5;" width="117" x="152.5" y="508.5"/><rect fill="#F1F1F1" height="10" style="stroke:#181818;stroke-width:0.5;" width="15" x="249.5" y="513.5"/><rect fill="#F1F1F1" height="2" style="stroke:#181818;stroke-width:0.5;" width="4" x="247.5" y="515.5"/><rect fill="#F1F1F1" height="2" style="stroke:#181818;stroke-width:0.5;" width="4" x="247.5" y="519.5"/><text fill="#000000" font-family="sans-serif" font-size="14" lengthAdjust="spacing" textLength="77" x="167.5" y="541.4951">Airflow API</text></g><!--MD5=[9687042e3dfea438b1fbbf2706c1dd45]
entity DataLake--><g id="elem_DataLake"><path d="M120,758.5 C120,748.5 164,748.5 164,748.5 C164,748.5 208,748.5 208,758.5 L208,783.7969 C208,793.7969 164,793.7969 164,793.7969 C164,793.7969 120,793.7969 120,783.7969 L120,758.5 " fill="#F1F1F1" style="stroke:#181818;stroke-width:0.5;"/><path d="M120,758.5 C120,768.5 164,768.5 164,768.5 C164,768.5 208,768.5 208,758.5 " fill="none" style="stroke:#181818;stroke-width:0.5;"/><text fill="#000000" font-family="sans-serif" font-size="14" lengthAdjust="spacing" textLength="68" x="130" y="785.4951">DataLake</text></g><!--MD5=[ad0f91464cfc2404121cdcd4e3400866]
entity DWH--><g id="elem_DWH"><path d="M157.5,863.5 C157.5,853.5 185,853.5 185,853.5 C185,853.5 212.5,853.5 212.5,863.5 L212.5,888.7969 C212.5,898.7969 185,898.7969 185,898.7969 C185,898.7969 157.5,898.7969 157.5,888.7969 L157.5,863.5 " fill="#F1F1F1" style="stroke:#181818;stroke-width:0.5;"/><path d="M157.5,863.5 C157.5,873.5 185,873.5 185,873.5 C185,873.5 212.5,873.5 212.5,863.5 " fill="none" style="stroke:#181818;stroke-width:0.5;"/><text fill="#000000" font-family="sans-serif" font-size="14" lengthAdjust="spacing" textLength="35" x="167.5" y="890.4951">DWH</text></g><!--MD5=[62942efc931d094969d95a2131abd39c]
entity DWH_replica--><g id="elem_DWH_replica"><path d="M169.5,968.5 C169.5,958.5 225,958.5 225,958.5 C225,958.5 280.5,958.5 280.5,968.5 L280.5,993.7969 C280.5,1003.7969 225,1003.7969 225,1003.7969 C225,1003.7969 169.5,1003.7969 169.5,993.7969 L169.5,968.5 " fill="#F1F1F1" style="stroke:#181818;stroke-width:0.5;"/><path d="M169.5,968.5 C169.5,978.5 225,978.5 225,978.5 C225,978.5 280.5,978.5 280.5,968.5 " fill="none" style="stroke:#181818;stroke-width:0.5;"/><text fill="#000000" font-family="sans-serif" font-size="14" lengthAdjust="spacing" textLength="91" x="179.5" y="995.4951">DWH_replica</text></g><!--MD5=[937b3a4cd9388f30eff7766211528913]
entity InputDAG--><g id="elem_InputDAG"><path d="M106,624 L106,655.2969 A2.5,2.5 0 0 0 108.5,657.7969 L193.5,657.7969 A2.5,2.5 0 0 0 196,655.2969 L196,631.5 L186,621.5 L108.5,621.5 A2.5,2.5 0 0 0 106,624 " fill="#F1F1F1" style="stroke:#181818;stroke-width:0.5;"/><path d="M186,621.5 L186,629 A2.5,2.5 0 0 0 188.5,631.5 L196,631.5 " fill="#F1F1F1" style="stroke:#181818;stroke-width:0.5;"/><text fill="#000000" font-family="sans-serif" font-size="14" lengthAdjust="spacing" textLength="70" x="116" y="644.4951">InputDAG</text></g><!--MD5=[46d32c8d0680a10885950b651962200e]
entity OutputDAG--><g id="elem_OutputDAG"><path d="M231.5,624 L231.5,655.2969 A2.5,2.5 0 0 0 234,657.7969 L332,657.7969 A2.5,2.5 0 0 0 334.5,655.2969 L334.5,631.5 L324.5,621.5 L234,621.5 A2.5,2.5 0 0 0 231.5,624 " fill="#F1F1F1" style="stroke:#181818;stroke-width:0.5;"/><path d="M324.5,621.5 L324.5,629 A2.5,2.5 0 0 0 327,631.5 L334.5,631.5 " fill="#F1F1F1" style="stroke:#181818;stroke-width:0.5;"/><text fill="#000000" font-family="sans-serif" font-size="14" lengthAdjust="spacing" textLength="83" x="241.5" y="644.4951">OutputDAG</text></g><!--MD5=[d6856b040a1663a798ad7a4fdedcc4e9]
entity trigger--><g id="elem_trigger"><rect fill="#F1F1F1" height="46.2969" rx="2.5" ry="2.5" style="stroke:#181818;stroke-width:0.5;" width="90" x="455" y="175.5"/><rect fill="#F1F1F1" height="10" style="stroke:#181818;stroke-width:0.5;" width="15" x="525" y="180.5"/><rect fill="#F1F1F1" height="2" style="stroke:#181818;stroke-width:0.5;" width="4" x="523" y="182.5"/><rect fill="#F1F1F1" height="2" style="stroke:#181818;stroke-width:0.5;" width="4" x="523" y="186.5"/><text fill="#000000" font-family="sans-serif" font-size="14" lengthAdjust="spacing" textLength="50" x="470" y="208.4951">trigger</text></g><!--MD5=[f02ac73a0424ff9b4235b8ce5a24cc8f]
entity action--><g id="elem_action"><rect fill="#F1F1F1" height="46.2969" rx="2.5" ry="2.5" style="stroke:#181818;stroke-width:0.5;" width="85" x="456.5" y="281.5"/><rect fill="#F1F1F1" height="10" style="stroke:#181818;stroke-width:0.5;" width="15" x="521.5" y="286.5"/><rect fill="#F1F1F1" height="2" style="stroke:#181818;stroke-width:0.5;" width="4" x="519.5" y="288.5"/><rect fill="#F1F1F1" height="2" style="stroke:#181818;stroke-width:0.5;" width="4" x="519.5" y="292.5"/><text fill="#000000" font-family="sans-serif" font-size="14" lengthAdjust="spacing" textLength="45" x="471.5" y="314.4951">action</text></g><!--MD5=[97ab183161fd5d1db7fba7485cf76add]
entity Admin--><g id="elem_Admin"><ellipse cx="413" cy="14" fill="#F1F1F1" rx="8" ry="8" style="stroke:#181818;stroke-width:0.5;"/><path d="M413,22 L413,49 M400,30 L426,30 M413,49 L400,64 M413,49 L426,64 " fill="none" style="stroke:#181818;stroke-width:0.5;"/><text fill="#000000" font-family="sans-serif" font-size="14" lengthAdjust="spacing" textLength="46" x="390" y="78.4951">Admin</text></g><!--MD5=[cf87ec952c94df9dadfcf20c0fc66baf]
link ERP_prod to ERP_replica--><g id="link_ERP_prod_ERP_replica"><path d="M503.848,793.844 C504.463,809.684 505.299,831.204 505.955,848.103 " fill="none" id="ERP_prod-to-ERP_replica" style="stroke:#181818;stroke-width:1.0;"/><polygon fill="#181818" points="506.153,853.188,509.8002,844.0394,505.9587,848.1918,501.8063,844.3502,506.153,853.188" style="stroke:#181818;stroke-width:1.0;"/></g><!--MD5=[06a9b1b1081fcaf82307223b0b6cdc3f]
link Admin to nginx--><g id="link_Admin_nginx"><path d="M391.94,81.537 C376.222,109.178 355.122,146.285 341.068,171.001 " fill="none" id="Admin-to-nginx" style="stroke:#181818;stroke-width:1.0;"/><polygon fill="#181818" points="338.529,175.467,346.4552,169.6211,341.0008,171.1207,339.5011,165.6662,338.529,175.467" style="stroke:#181818;stroke-width:1.0;"/></g><!--MD5=[ef786dfc8530ef5c8279f029d8514e32]
link nginx to webserver--><g id="link_nginx_webserver"><path d="M324.091,221.556 C322.707,237.55 320.827,259.278 319.35,276.342 " fill="none" id="nginx-to-webserver" style="stroke:#181818;stroke-width:1.0;"/><polygon fill="#181818" points="318.906,281.476,323.6676,272.8547,319.3374,276.4946,315.6975,272.1644,318.906,281.476" style="stroke:#181818;stroke-width:1.0;"/></g><!--MD5=[cb3cf98dd362a5ca53c6f2b414ce3b22]
link webserver to API--><g id="link_webserver_API"><path d="M317,327.556 C317,343.55 317,365.278 317,382.342 " fill="none" id="webserver-to-API" style="stroke:#181818;stroke-width:1.0;"/><polygon fill="#181818" points="317,387.476,321,378.476,317,382.476,313,378.476,317,387.476" style="stroke:#181818;stroke-width:1.0;"/></g><!--MD5=[ea9284ec30246fdac682df986b30453c]
link API to airflow--><g id="link_API_airflow"><path d="M297.311,433.604 C279.5,453.599 253.248,483.07 234.378,504.255 " fill="none" id="API-to-airflow" style="stroke:#181818;stroke-width:1.0;"/><polygon fill="#181818" points="230.944,508.11,239.9175,504.051,234.2701,504.3767,233.9443,498.7293,230.944,508.11" style="stroke:#181818;stroke-width:1.0;"/></g><!--MD5=[81a778bb228dccac27761d0d1c26968a]
link airflow to dag--><g id="link_airflow_dag"><path d="M152.403,534.533 C130.219,538.216 106.391,546.141 90,562.5 C87.0158,565.4784 84.4758,568.8499 82.316,572.4756 C81.2362,574.2884 80.2514,576.1648 79.3537,578.0875 C79.2976,578.2076 79.2418,578.328 79.1864,578.4485 " fill="none" id="airflow-to-dag" style="stroke:#181818;stroke-width:1.0;"/><polygon fill="#181818" points="79.1864,578.4485,86.581,571.9431,81.2755,573.9059,79.3127,568.6004,79.1864,578.4485" style="stroke:#181818;stroke-width:1.0;"/></g><!--MD5=[c58555e18a7d9d504ecac75ee26babb6]
link ERP_replica to InputDAG--><g id="link_ERP_replica_InputDAG"><path d="M488.548,853.485 C450.827,809.763 366.927,713.936 349,705.5 C321.808,692.704 241.712,709.129 214,697.5 C195.635,689.793 179.116,674.358 167.605,661.492 " fill="none" id="ERP_replica-to-InputDAG" style="stroke:#181818;stroke-width:1.0;"/><polygon fill="#181818" points="164.197,657.592,167.1099,667.0002,167.4882,661.356,173.1324,661.7343,164.197,657.592" style="stroke:#181818;stroke-width:1.0;"/></g><!--MD5=[7634c992412c49cca65acf563e8effc9]
link InputDAG to DataLake--><g id="link_InputDAG_DataLake"><path d="M152.726,657.697 C154.919,679.536 158.726,717.46 161.303,743.132 " fill="none" id="InputDAG-to-DataLake" style="stroke:#181818;stroke-width:1.0;"/><polygon fill="#181818" points="161.833,748.413,164.9158,739.059,161.3345,743.4379,156.9556,739.8567,161.833,748.413" style="stroke:#181818;stroke-width:1.0;"/></g><!--MD5=[e465f89d69f1fb96809b90450d697ed0]
link DataLake to DWH--><g id="link_DataLake_DWH"><path d="M168.454,793.844 C171.683,809.684 176.071,831.204 179.516,848.103 " fill="none" id="DataLake-to-DWH" style="stroke:#181818;stroke-width:1.0;"/><polygon fill="#181818" points="180.553,853.188,182.6753,843.5705,179.5546,848.2887,174.8364,845.168,180.553,853.188" style="stroke:#181818;stroke-width:1.0;"/></g><!--MD5=[3b0f7f5b6a9f3434e02e807696530efb]
link DWH to DWH_replica--><g id="link_DWH_DWH_replica"><path d="M193.483,898.844 C199.635,914.684 207.992,936.204 214.555,953.103 " fill="none" id="DWH-to-DWH_replica" style="stroke:#181818;stroke-width:1.0;"/><polygon fill="#181818" points="216.529,958.188,216.9991,948.3504,214.7187,953.5272,209.5418,951.2468,216.529,958.188" style="stroke:#181818;stroke-width:1.0;"/></g><!--MD5=[6d3a5398ec864c3e48155e13e03d93b7]
link DWH_replica to OutputDAG--><g id="link_DWH_replica_OutputDAG"><path d="M228.677,958.475 C239.081,897.58 268.648,724.509 279.2,662.743 " fill="none" id="DWH_replica-to-OutputDAG" style="stroke:#181818;stroke-width:1.0;"/><polygon fill="#181818" points="280.044,657.803,274.5841,665.9999,279.2012,662.7315,282.4697,667.3485,280.044,657.803" style="stroke:#181818;stroke-width:1.0;"/></g><!--MD5=[8e6350107f0e5fba24bb3aba7c97c37b]
link OutputDAG to ERP_prod--><g id="link_OutputDAG_ERP_prod"><path d="M313.619,657.647 C336.649,670.618 368.93,688.962 397,705.5 C419.087,718.513 443.544,733.365 463.396,745.535 " fill="none" id="OutputDAG-to-ERP_prod" style="stroke:#181818;stroke-width:1.0;"/><polygon fill="#181818" points="467.818,748.248,462.2382,740.1322,463.5561,745.6334,458.0549,746.9513,467.818,748.248" style="stroke:#181818;stroke-width:1.0;"/></g><!--MD5=[3367905606e513f2ad43e347056f2599]
link trigger to action--><g id="link_trigger_action"><path d="M499.788,221.556 C499.634,237.55 499.425,259.278 499.261,276.342 " fill="none" id="trigger-to-action" style="stroke:#181818;stroke-width:1.0;"/><polygon fill="#181818" points="499.212,281.476,503.2992,272.5153,499.2606,276.4762,495.2996,272.4376,499.212,281.476" style="stroke:#181818;stroke-width:1.0;"/></g><!--MD5=[16b5a234d268d696ce8ffd93c91b8c79]
link Admin to trigger--><g id="link_Admin_trigger"><path d="M434.06,81.537 C449.778,109.178 470.878,146.285 484.932,171.001 " fill="none" id="Admin-to-trigger" style="stroke:#181818;stroke-width:1.0;"/><polygon fill="#181818" points="487.471,175.467,486.4989,165.6662,484.9992,171.1207,479.5448,169.6211,487.471,175.467" style="stroke:#181818;stroke-width:1.0;"/></g><!--MD5=[86dbbf601fb8d453d0c5c5f1e32cc871]
link action to API--><g id="link_action_API"><path d="M460.402,327.556 C430.964,344.378 390.427,367.542 359.961,384.951 " fill="none" id="action-to-API" style="stroke:#181818;stroke-width:1.0;"/><polygon fill="#181818" points="355.542,387.476,365.3409,386.4851,359.8836,384.9959,361.3728,379.5386,355.542,387.476" style="stroke:#181818;stroke-width:1.0;"/></g><!--MD5=[9fe5fac5697af12f20c96d3ad5119b29]
@startuml
actor Admin

rectangle ERP {
	database ERP_prod
	database ERP_replica
	ERP_prod - -> ERP_replica
}

rectangle "Сервис централизованной аналитики"  {

	rectangle "Admin Panel" as AP {
		[nginx]
		[webserver]
		[proxy API] as API

		Admin - -> nginx
		nginx - -> webserver
		webserver - -> API
	}

	rectangle "оркестратор задач (Airflow)" as ETL {
		folder "Airflow DAGs" as dag {
			file InputDAG
			file OutputDAG
		}
		[Airflow API] as airflow
		API - -> airflow
                airflow - -> dag


		database DataLake
		database DWH
		database DWH_replica

		ERP_replica - -> InputDAG
		InputDAG - -> DataLake
		DataLake - -> DWH

		DWH - -> DWH_replica
		DWH_replica - -> OutputDAG
		OutputDAG - -> ERP_prod
	}
}



rectangle "Automation platform (Zapier)" {
	[trigger]
	[action]
	trigger - -> action
}
Admin - -> trigger
action - -> API
@enduml

PlantUML version 1.2022.7beta2(Unknown compile time)
(GPL source distribution)
Java Runtime: Java(TM) SE Runtime Environment
JVM: Java HotSpot(TM) 64-Bit Server VM
Default Encoding: UTF-8
Language: en
Country: US
--></g></svg>