<?xml version="1.0" encoding="UTF-8" standalone="no"?><svg xmlns="http://www.w3.org/2000/svg" xmlns:xlink="http://www.w3.org/1999/xlink" contentStyleType="text/css" height="466px" preserveAspectRatio="none" style="width:514px;height:466px;background:#FFFFFF;" version="1.1" viewBox="0 0 514 466" width="514px" zoomAndPan="magnify"><defs/><g><!--MD5=[cb6d5fcd57e2e58f9a1db57a999ba586]
cluster AP--><g id="cluster_AP"><rect height="218" rx="2.5" ry="2.5" style="stroke:#181818;stroke-width:1.0;fill:none;" width="382" x="71" y="7"/><text fill="#000000" font-family="sans-serif" font-size="14" font-weight="bold" lengthAdjust="spacing" textLength="100" x="212" y="21.9951">Admin Panel</text></g><!--MD5=[43e11ae77819885c83b5b603f8dc21c5]
cluster ETL--><g id="cluster_ETL"><rect height="211" rx="2.5" ry="2.5" style="stroke:#181818;stroke-width:1.0;fill:none;" width="340" x="168" y="249"/><text fill="#000000" font-family="sans-serif" font-size="14" font-weight="bold" lengthAdjust="spacing" textLength="29" x="323.5" y="263.9951">ETL</text></g><!--MD5=[8824c66cba45be527cf3dd56bcd70cd2]
entity nginx--><g id="elem_nginx"><rect fill="#F1F1F1" height="46.2969" rx="2.5" ry="2.5" style="stroke:#181818;stroke-width:0.5;" width="79" x="87.5" y="42"/><rect fill="#F1F1F1" height="10" style="stroke:#181818;stroke-width:0.5;" width="15" x="146.5" y="47"/><rect fill="#F1F1F1" height="2" style="stroke:#181818;stroke-width:0.5;" width="4" x="144.5" y="49"/><rect fill="#F1F1F1" height="2" style="stroke:#181818;stroke-width:0.5;" width="4" x="144.5" y="53"/><text fill="#000000" font-family="sans-serif" font-size="14" lengthAdjust="spacing" textLength="39" x="102.5" y="74.9951">nginx</text></g><!--MD5=[788ffb02e69a71dda3642c9a267eda8f]
entity webserver--><g id="elem_webserver"><rect fill="#F1F1F1" height="46.2969" rx="2.5" ry="2.5" style="stroke:#181818;stroke-width:0.5;" width="115" x="201.5" y="42"/><rect fill="#F1F1F1" height="10" style="stroke:#181818;stroke-width:0.5;" width="15" x="296.5" y="47"/><rect fill="#F1F1F1" height="2" style="stroke:#181818;stroke-width:0.5;" width="4" x="294.5" y="49"/><rect fill="#F1F1F1" height="2" style="stroke:#181818;stroke-width:0.5;" width="4" x="294.5" y="53"/><text fill="#000000" font-family="sans-serif" font-size="14" lengthAdjust="spacing" textLength="75" x="216.5" y="74.9951">webserver</text></g><!--MD5=[645d8587175d8f7ad110cd370775931d]
entity API--><g id="elem_API"><rect fill="#F1F1F1" height="46.2969" rx="2.5" ry="2.5" style="stroke:#181818;stroke-width:0.5;" width="63" x="227.5" y="163"/><rect fill="#F1F1F1" height="10" style="stroke:#181818;stroke-width:0.5;" width="15" x="270.5" y="168"/><rect fill="#F1F1F1" height="2" style="stroke:#181818;stroke-width:0.5;" width="4" x="268.5" y="170"/><rect fill="#F1F1F1" height="2" style="stroke:#181818;stroke-width:0.5;" width="4" x="268.5" y="174"/><text fill="#000000" font-family="sans-serif" font-size="14" lengthAdjust="spacing" textLength="23" x="242.5" y="195.9951">API</text></g><!--MD5=[4a60eea44d631fad9d2f43d644fe0814]
entity adminDB--><g id="elem_adminDB"><path d="M351.5,52.5 C351.5,42.5 394,42.5 394,42.5 C394,42.5 436.5,42.5 436.5,52.5 L436.5,77.7969 C436.5,87.7969 394,87.7969 394,87.7969 C394,87.7969 351.5,87.7969 351.5,77.7969 L351.5,52.5 " fill="#F1F1F1" style="stroke:#181818;stroke-width:0.5;"/><path d="M351.5,52.5 C351.5,62.5 394,62.5 394,62.5 C394,62.5 436.5,62.5 436.5,52.5 " fill="none" style="stroke:#181818;stroke-width:0.5;"/><text fill="#000000" font-family="sans-serif" font-size="14" lengthAdjust="spacing" textLength="65" x="361.5" y="79.4951">adminDB</text></g><!--MD5=[f232dfcfc11ef75f39b44e5a36037f7f]
entity dag--><g id="elem_dag"><path d="M357,284 L398,284 A3.75,3.75 0 0 1 400.5,286.5 L407.5,305 L475,305 A2.5,2.5 0 0 1 477.5,307.5 L477.5,335.7969 A2.5,2.5 0 0 1 475,338.2969 L357,338.2969 A2.5,2.5 0 0 1 354.5,335.7969 L354.5,286.5 A2.5,2.5 0 0 1 357,284 " fill="#F1F1F1" style="stroke:#181818;stroke-width:0.5;"/><line style="stroke:#181818;stroke-width:0.5;" x1="354.5" x2="407.5" y1="305" y2="305"/><text fill="#000000" font-family="sans-serif" font-size="14" lengthAdjust="spacing" textLength="93" x="364.5" y="324.9951">Airflow DAGs</text></g><!--MD5=[6cfba0569f9377fbb6969f8dc87b1d95]
entity airflow--><g id="elem_airflow"><rect fill="#F1F1F1" height="46.2969" rx="2.5" ry="2.5" style="stroke:#181818;stroke-width:0.5;" width="93" x="184.5" y="398"/><rect fill="#F1F1F1" height="10" style="stroke:#181818;stroke-width:0.5;" width="15" x="257.5" y="403"/><rect fill="#F1F1F1" height="2" style="stroke:#181818;stroke-width:0.5;" width="4" x="255.5" y="405"/><rect fill="#F1F1F1" height="2" style="stroke:#181818;stroke-width:0.5;" width="4" x="255.5" y="409"/><text fill="#000000" font-family="sans-serif" font-size="14" lengthAdjust="spacing" textLength="53" x="199.5" y="430.9951">ETL API</text></g><!--MD5=[08cee3dab0d8664b12d552599ef580c7]
entity ETL API--><g id="elem_ETL API"><rect fill="#F1F1F1" height="46.2969" rx="2.5" ry="2.5" style="stroke:#181818;stroke-width:0.5;" width="93" x="212.5" y="288"/><rect fill="#F1F1F1" height="10" style="stroke:#181818;stroke-width:0.5;" width="15" x="285.5" y="293"/><rect fill="#F1F1F1" height="2" style="stroke:#181818;stroke-width:0.5;" width="4" x="283.5" y="295"/><rect fill="#F1F1F1" height="2" style="stroke:#181818;stroke-width:0.5;" width="4" x="283.5" y="299"/><text fill="#000000" font-family="sans-serif" font-size="14" lengthAdjust="spacing" textLength="53" x="227.5" y="320.9951">ETL API</text></g><!--MD5=[9687042e3dfea438b1fbbf2706c1dd45]
entity DataLake--><g id="elem_DataLake"><path d="M313,408.5 C313,398.5 357,398.5 357,398.5 C357,398.5 401,398.5 401,408.5 L401,433.7969 C401,443.7969 357,443.7969 357,443.7969 C357,443.7969 313,443.7969 313,433.7969 L313,408.5 " fill="#F1F1F1" style="stroke:#181818;stroke-width:0.5;"/><path d="M313,408.5 C313,418.5 357,418.5 357,418.5 C357,418.5 401,418.5 401,408.5 " fill="none" style="stroke:#181818;stroke-width:0.5;"/><text fill="#000000" font-family="sans-serif" font-size="14" lengthAdjust="spacing" textLength="68" x="323" y="435.4951">DataLake</text></g><!--MD5=[ad0f91464cfc2404121cdcd4e3400866]
entity DWH--><g id="elem_DWH"><path d="M436.5,408.5 C436.5,398.5 464,398.5 464,398.5 C464,398.5 491.5,398.5 491.5,408.5 L491.5,433.7969 C491.5,443.7969 464,443.7969 464,443.7969 C464,443.7969 436.5,443.7969 436.5,433.7969 L436.5,408.5 " fill="#F1F1F1" style="stroke:#181818;stroke-width:0.5;"/><path d="M436.5,408.5 C436.5,418.5 464,418.5 464,418.5 C464,418.5 491.5,418.5 491.5,408.5 " fill="none" style="stroke:#181818;stroke-width:0.5;"/><text fill="#000000" font-family="sans-serif" font-size="14" lengthAdjust="spacing" textLength="35" x="446.5" y="435.4951">DWH</text></g><!--MD5=[97ab183161fd5d1db7fba7485cf76add]
entity Admin--><g id="elem_Admin"><ellipse cx="29" cy="35.5" fill="#F1F1F1" rx="8" ry="8" style="stroke:#181818;stroke-width:0.5;"/><path d="M29,43.5 L29,70.5 M16,51.5 L42,51.5 M29,70.5 L16,85.5 M29,70.5 L42,85.5 " fill="none" style="stroke:#181818;stroke-width:0.5;"/><text fill="#000000" font-family="sans-serif" font-size="14" lengthAdjust="spacing" textLength="46" x="6" y="99.9951">Admin</text></g><!--MD5=[06a9b1b1081fcaf82307223b0b6cdc3f]
link Admin to nginx--><g id="link_Admin_nginx"><path d="M52.3516,65 C62.284,65 72.2165,65 82.149,65 " fill="none" id="Admin-to-nginx" style="stroke:#181818;stroke-width:1.0;"/><polygon fill="#181818" points="87.343,65,78.343,61,82.343,65,78.343,69,87.343,65" style="stroke:#181818;stroke-width:1.0;"/></g><!--MD5=[ef786dfc8530ef5c8279f029d8514e32]
link nginx to webserver--><g id="link_nginx_webserver"><path d="M166.703,65 C176.528,65 186.352,65 196.177,65 " fill="none" id="nginx-to-webserver" style="stroke:#181818;stroke-width:1.0;"/><polygon fill="#181818" points="201.314,65,192.314,61,196.314,65,192.314,69,201.314,65" style="stroke:#181818;stroke-width:1.0;"/></g><!--MD5=[be1f361c9986d8dc93e691a56a995edc]
link webserver to adminDB--><g id="link_webserver_adminDB"><path d="M316.744,65 C326.595,65 336.446,65 346.297,65 " fill="none" id="webserver-to-adminDB" style="stroke:#181818;stroke-width:1.0;"/><polygon fill="#181818" points="351.449,65,342.449,61,346.449,65,342.449,69,351.449,65" style="stroke:#181818;stroke-width:1.0;"/></g><!--MD5=[cb3cf98dd362a5ca53c6f2b414ce3b22]
link webserver to API--><g id="link_webserver_API"><path d="M259,88.104 C259,107.685 259,136.351 259,157.426 " fill="none" id="webserver-to-API" style="stroke:#181818;stroke-width:1.0;"/><polygon fill="#181818" points="259,162.61,263,153.61,259,157.61,255,153.61,259,162.61" style="stroke:#181818;stroke-width:1.0;"/></g><!--MD5=[9d3ed934b872378984e7a6b7f08c4c21]
link API to ETL API--><g id="link_API_ETL API"><path d="M259,209.274 C259,229.912 259,260.663 259,282.755 " fill="none" id="API-to-ETL API" style="stroke:#181818;stroke-width:1.0;"/><polygon fill="#181818" points="259,287.891,263,278.891,259,282.891,255,278.891,259,287.891" style="stroke:#181818;stroke-width:1.0;"/></g><!--MD5=[97a0e4db9cdb338edb556fbae5fc4a56]
link airflow to DWH--><g id="link_airflow_DWH"><path d="M258.02,397.7275 C273.005,386.3681 292.597,373.902 312.5,368 C350.423,356.754 364.365,354.375 401.5,368 C416.5,373.504 430.367,384.3783 441.209,394.8523 " fill="none" id="airflow-to-DWH" style="stroke:#181818;stroke-width:1.0;"/><polygon fill="#181818" points="444.767,398.3807,441.194,389.2028,441.2171,394.8596,435.5603,394.8827,444.767,398.3807" style="stroke:#181818;stroke-width:1.0;"/></g><!--MD5=[0e06499ad673523cdd47e6fd16d83639]
link airflow to DataLake--><g id="link_airflow_DataLake"><path d="M277.758,421 C287.686,421 297.615,421 307.544,421 " fill="none" id="airflow-to-DataLake" style="stroke:#181818;stroke-width:1.0;"/><polygon fill="#181818" points="312.736,421,303.736,417,307.736,421,303.736,425,312.736,421" style="stroke:#181818;stroke-width:1.0;"/></g><!--MD5=[5b192137df8c53cd06f118fa9170eeac]
link dag to DataLake--><g id="link_dag_DataLake"><path d="M401.718,338.144 C392.49,355.034 380.528,376.932 371.298,393.8281 " fill="none" id="dag-to-DataLake" style="stroke:#181818;stroke-width:1.0;"/><polygon fill="#181818" points="368.771,398.4527,376.5966,392.4728,371.1685,394.065,369.5763,388.6368,368.771,398.4527" style="stroke:#181818;stroke-width:1.0;"/></g><!--MD5=[1bc23792fa85dc631e8854b6548be930]
link dag to DWH--><g id="link_dag_DWH"><path d="M427.619,338.144 C435.126,355.034 444.859,376.932 452.368,393.8281 " fill="none" id="dag-to-DWH" style="stroke:#181818;stroke-width:1.0;"/><polygon fill="#181818" points="454.423,398.4527,454.4226,388.6038,452.3921,393.8837,447.1122,391.8533,454.423,398.4527" style="stroke:#181818;stroke-width:1.0;"/></g><!--MD5=[66849cf5b94d4bdb2a02263720df4f9e]
@startuml
actor Admin
rectangle "Admin Panel" as AP {
	[nginx]
	[webserver]
	[API]
	database adminDB

	Admin -> nginx
	nginx -> webserver
	webserver -> adminDB
	webserver - -> API
}
rectangle ETL {
	folder "Airflow DAGs" as dag
	[ETL API] as airflow
	API - -> [ETL API]


	database DataLake
	database DWH

	airflow -> DWH
	airflow -> DataLake

	dag - -> DataLake
	dag - -> DWH
}
@enduml

PlantUML version 1.2022.7beta2(Unknown compile time)
(GPL source distribution)
Java Runtime: Java(TM) SE Runtime Environment
JVM: Java HotSpot(TM) 64-Bit Server VM
Default Encoding: UTF-8
Language: en
Country: US
--></g></svg>