<?xml version="1.0" encoding="UTF-8" standalone="no"?><svg xmlns="http://www.w3.org/2000/svg" xmlns:xlink="http://www.w3.org/1999/xlink" contentStyleType="text/css" height="570px" preserveAspectRatio="none" style="width:659px;height:570px;background:#FFFFFF;" version="1.1" viewBox="0 0 659 570" width="659px" zoomAndPan="magnify"><defs/><g><!--MD5=[cb6d5fcd57e2e58f9a1db57a999ba586]
cluster AP--><g id="cluster_AP"><rect height="218" rx="2.5" ry="2.5" style="stroke:#181818;stroke-width:1.0;fill:none;" width="262" x="291" y="7"/><text fill="#000000" font-family="sans-serif" font-size="14" font-weight="bold" lengthAdjust="spacing" textLength="100" x="372" y="21.9951">Admin Panel</text></g><!--MD5=[0cacb005cb15d84f864a5fcd36ec34b1]
cluster Automation platform (Zapier)--><g id="cluster_Automation platform (Zapier)"><rect height="97" rx="2.5" ry="2.5" style="stroke:#181818;stroke-width:1.0;fill:none;" width="260" x="7" y="128"/><text fill="#000000" font-family="sans-serif" font-size="14" font-weight="bold" lengthAdjust="spacing" textLength="244" x="15" y="142.9951">Automation platform (Zapier)</text></g><!--MD5=[43e11ae77819885c83b5b603f8dc21c5]
cluster ETL--><g id="cluster_ETL"><rect height="315" rx="2.5" ry="2.5" style="stroke:#181818;stroke-width:1.0;fill:none;" width="308" x="345" y="249"/><text fill="#000000" font-family="sans-serif" font-size="14" font-weight="bold" lengthAdjust="spacing" textLength="29" x="484.5" y="263.9951">ETL</text></g><!--MD5=[8824c66cba45be527cf3dd56bcd70cd2]
entity nginx--><g id="elem_nginx"><rect fill="#F1F1F1" height="46.2969" rx="2.5" ry="2.5" style="stroke:#181818;stroke-width:0.5;" width="79" x="307.5" y="42"/><rect fill="#F1F1F1" height="10" style="stroke:#181818;stroke-width:0.5;" width="15" x="366.5" y="47"/><rect fill="#F1F1F1" height="2" style="stroke:#181818;stroke-width:0.5;" width="4" x="364.5" y="49"/><rect fill="#F1F1F1" height="2" style="stroke:#181818;stroke-width:0.5;" width="4" x="364.5" y="53"/><text fill="#000000" font-family="sans-serif" font-size="14" lengthAdjust="spacing" textLength="39" x="322.5" y="74.9951">nginx</text></g><!--MD5=[788ffb02e69a71dda3642c9a267eda8f]
entity webserver--><g id="elem_webserver"><rect fill="#F1F1F1" height="46.2969" rx="2.5" ry="2.5" style="stroke:#181818;stroke-width:0.5;" width="115" x="421.5" y="42"/><rect fill="#F1F1F1" height="10" style="stroke:#181818;stroke-width:0.5;" width="15" x="516.5" y="47"/><rect fill="#F1F1F1" height="2" style="stroke:#181818;stroke-width:0.5;" width="4" x="514.5" y="49"/><rect fill="#F1F1F1" height="2" style="stroke:#181818;stroke-width:0.5;" width="4" x="514.5" y="53"/><text fill="#000000" font-family="sans-serif" font-size="14" lengthAdjust="spacing" textLength="75" x="436.5" y="74.9951">webserver</text></g><!--MD5=[645d8587175d8f7ad110cd370775931d]
entity API--><g id="elem_API"><rect fill="#F1F1F1" height="46.2969" rx="2.5" ry="2.5" style="stroke:#181818;stroke-width:0.5;" width="108" x="366" y="163"/><rect fill="#F1F1F1" height="10" style="stroke:#181818;stroke-width:0.5;" width="15" x="454" y="168"/><rect fill="#F1F1F1" height="2" style="stroke:#181818;stroke-width:0.5;" width="4" x="452" y="170"/><rect fill="#F1F1F1" height="2" style="stroke:#181818;stroke-width:0.5;" width="4" x="452" y="174"/><text fill="#000000" font-family="sans-serif" font-size="14" lengthAdjust="spacing" textLength="68" x="381" y="195.9951">proxy API</text></g><!--MD5=[d6856b040a1663a798ad7a4fdedcc4e9]
entity trigger--><g id="elem_trigger"><rect fill="#F1F1F1" height="46.2969" rx="2.5" ry="2.5" style="stroke:#181818;stroke-width:0.5;" width="90" x="40" y="163"/><rect fill="#F1F1F1" height="10" style="stroke:#181818;stroke-width:0.5;" width="15" x="110" y="168"/><rect fill="#F1F1F1" height="2" style="stroke:#181818;stroke-width:0.5;" width="4" x="108" y="170"/><rect fill="#F1F1F1" height="2" style="stroke:#181818;stroke-width:0.5;" width="4" x="108" y="174"/><text fill="#000000" font-family="sans-serif" font-size="14" lengthAdjust="spacing" textLength="50" x="55" y="195.9951">trigger</text></g><!--MD5=[f02ac73a0424ff9b4235b8ce5a24cc8f]
entity action--><g id="elem_action"><rect fill="#F1F1F1" height="46.2969" rx="2.5" ry="2.5" style="stroke:#181818;stroke-width:0.5;" width="85" x="165.5" y="163"/><rect fill="#F1F1F1" height="10" style="stroke:#181818;stroke-width:0.5;" width="15" x="230.5" y="168"/><rect fill="#F1F1F1" height="2" style="stroke:#181818;stroke-width:0.5;" width="4" x="228.5" y="170"/><rect fill="#F1F1F1" height="2" style="stroke:#181818;stroke-width:0.5;" width="4" x="228.5" y="174"/><text fill="#000000" font-family="sans-serif" font-size="14" lengthAdjust="spacing" textLength="45" x="180.5" y="195.9951">action</text></g><!--MD5=[f232dfcfc11ef75f39b44e5a36037f7f]
entity dag--><g id="elem_dag"><path d="M516,284 L557,284 A3.75,3.75 0 0 1 559.5,286.5 L566.5,305 L634,305 A2.5,2.5 0 0 1 636.5,307.5 L636.5,335.7969 A2.5,2.5 0 0 1 634,338.2969 L516,338.2969 A2.5,2.5 0 0 1 513.5,335.7969 L513.5,286.5 A2.5,2.5 0 0 1 516,284 " fill="#F1F1F1" style="stroke:#181818;stroke-width:0.5;"/><line style="stroke:#181818;stroke-width:0.5;" x1="513.5" x2="566.5" y1="305" y2="305"/><text fill="#000000" font-family="sans-serif" font-size="14" lengthAdjust="spacing" textLength="93" x="523.5" y="324.9951">Airflow DAGs</text></g><!--MD5=[6cfba0569f9377fbb6969f8dc87b1d95]
entity airflow--><g id="elem_airflow"><rect fill="#F1F1F1" height="46.2969" rx="2.5" ry="2.5" style="stroke:#181818;stroke-width:0.5;" width="117" x="361.5" y="288"/><rect fill="#F1F1F1" height="10" style="stroke:#181818;stroke-width:0.5;" width="15" x="458.5" y="293"/><rect fill="#F1F1F1" height="2" style="stroke:#181818;stroke-width:0.5;" width="4" x="456.5" y="295"/><rect fill="#F1F1F1" height="2" style="stroke:#181818;stroke-width:0.5;" width="4" x="456.5" y="299"/><text fill="#000000" font-family="sans-serif" font-size="14" lengthAdjust="spacing" textLength="77" x="376.5" y="320.9951">Airflow API</text></g><!--MD5=[9687042e3dfea438b1fbbf2706c1dd45]
entity DataLake--><g id="elem_DataLake"><path d="M428,408 C428,398 472,398 472,398 C472,398 516,398 516,408 L516,433.2969 C516,443.2969 472,443.2969 472,443.2969 C472,443.2969 428,443.2969 428,433.2969 L428,408 " fill="#F1F1F1" style="stroke:#181818;stroke-width:0.5;"/><path d="M428,408 C428,418 472,418 472,418 C472,418 516,418 516,408 " fill="none" style="stroke:#181818;stroke-width:0.5;"/><text fill="#000000" font-family="sans-serif" font-size="14" lengthAdjust="spacing" textLength="68" x="438" y="434.9951">DataLake</text></g><!--MD5=[ad0f91464cfc2404121cdcd4e3400866]
entity DWH--><g id="elem_DWH"><path d="M551.5,408 C551.5,398 579,398 579,398 C579,398 606.5,398 606.5,408 L606.5,433.2969 C606.5,443.2969 579,443.2969 579,443.2969 C579,443.2969 551.5,443.2969 551.5,433.2969 L551.5,408 " fill="#F1F1F1" style="stroke:#181818;stroke-width:0.5;"/><path d="M551.5,408 C551.5,418 579,418 579,418 C579,418 606.5,418 606.5,408 " fill="none" style="stroke:#181818;stroke-width:0.5;"/><text fill="#000000" font-family="sans-serif" font-size="14" lengthAdjust="spacing" textLength="35" x="561.5" y="434.9951">DWH</text></g><!--MD5=[ed8f1b9699df6c6de7e0df9b22a67b39]
entity replica--><g id="elem_replica"><path d="M525,513 C525,503 579,503 579,503 C579,503 633,503 633,513 L633,538.2969 C633,548.2969 579,548.2969 579,548.2969 C579,548.2969 525,548.2969 525,538.2969 L525,513 " fill="#F1F1F1" style="stroke:#181818;stroke-width:0.5;"/><path d="M525,513 C525,523 579,523 579,523 C579,523 633,523 633,513 " fill="none" style="stroke:#181818;stroke-width:0.5;"/><text fill="#000000" font-family="sans-serif" font-size="14" lengthAdjust="spacing" textLength="88" x="535" y="539.9951">DWH replica</text></g><!--MD5=[97ab183161fd5d1db7fba7485cf76add]
entity Admin--><g id="elem_Admin"><ellipse cx="167" cy="35.5" fill="#F1F1F1" rx="8" ry="8" style="stroke:#181818;stroke-width:0.5;"/><path d="M167,43.5 L167,70.5 M154,51.5 L180,51.5 M167,70.5 L154,85.5 M167,70.5 L180,85.5 " fill="none" style="stroke:#181818;stroke-width:0.5;"/><text fill="#000000" font-family="sans-serif" font-size="14" lengthAdjust="spacing" textLength="46" x="144" y="99.9951">Admin</text></g><!--MD5=[06a9b1b1081fcaf82307223b0b6cdc3f]
link Admin to nginx--><g id="link_Admin_nginx"><path d="M190.203,65 C227.62,65 265.037,65 302.455,65 " fill="none" id="Admin-to-nginx" style="stroke:#181818;stroke-width:1.0;"/><polygon fill="#181818" points="307.495,65,298.495,61,302.495,65,298.495,69,307.495,65" style="stroke:#181818;stroke-width:1.0;"/></g><!--MD5=[ef786dfc8530ef5c8279f029d8514e32]
link nginx to webserver--><g id="link_nginx_webserver"><path d="M386.703,65 C396.528,65 406.352,65 416.177,65 " fill="none" id="nginx-to-webserver" style="stroke:#181818;stroke-width:1.0;"/><polygon fill="#181818" points="421.314,65,412.314,61,416.314,65,412.314,69,421.314,65" style="stroke:#181818;stroke-width:1.0;"/></g><!--MD5=[cb3cf98dd362a5ca53c6f2b414ce3b22]
link webserver to API--><g id="link_webserver_API"><path d="M468.041,88.104 C458.251,107.851 443.879,136.838 433.406,157.96 " fill="none" id="webserver-to-API" style="stroke:#181818;stroke-width:1.0;"/><polygon fill="#181818" points="431.101,162.61,438.6828,156.3238,433.3222,158.1305,431.5155,152.7699,431.101,162.61" style="stroke:#181818;stroke-width:1.0;"/></g><!--MD5=[3367905606e513f2ad43e347056f2599]
link trigger to action--><g id="link_trigger_action"><path d="M130.164,186 C140.175,186 150.187,186 160.198,186 " fill="none" id="trigger-to-action" style="stroke:#181818;stroke-width:1.0;"/><polygon fill="#181818" points="165.433,186,156.433,182,160.433,186,156.433,190,165.433,186" style="stroke:#181818;stroke-width:1.0;"/></g><!--MD5=[16b5a234d268d696ce8ffd93c91b8c79]
link Admin to trigger--><g id="link_Admin_trigger"><path d="M143.94,99.465 C131.101,118.097 115.339,140.971 103.346,158.376 " fill="none" id="Admin-to-trigger" style="stroke:#181818;stroke-width:1.0;"/><polygon fill="#181818" points="100.382,162.677,108.7825,157.5359,103.2191,158.5599,102.1951,152.9965,100.382,162.677" style="stroke:#181818;stroke-width:1.0;"/></g><!--MD5=[86dbbf601fb8d453d0c5c5f1e32cc871]
link action to API--><g id="link_action_API"><path d="M250.648,186 C287.219,186 323.789,186 360.359,186 " fill="none" id="action-to-API" style="stroke:#181818;stroke-width:1.0;"/><polygon fill="#181818" points="365.755,186,356.755,182,360.755,186,356.755,190,365.755,186" style="stroke:#181818;stroke-width:1.0;"/></g><!--MD5=[ea9284ec30246fdac682df986b30453c]
link API to airflow--><g id="link_API_airflow"><path d="M420,209.274 C420,229.912 420,260.663 420,282.755 " fill="none" id="API-to-airflow" style="stroke:#181818;stroke-width:1.0;"/><polygon fill="#181818" points="420,287.891,424,278.891,420,282.891,416,278.891,420,287.891" style="stroke:#181818;stroke-width:1.0;"/></g><!--MD5=[81a778bb228dccac27761d0d1c26968a]
link airflow to dag--><g id="link_airflow_dag"><path d="M478.73,311 C488.551,311 498.371,311 508.192,311 " fill="none" id="airflow-to-dag" style="stroke:#181818;stroke-width:1.0;"/><polygon fill="#181818" points="513.327,311,504.327,307,508.327,311,504.327,315,513.327,311" style="stroke:#181818;stroke-width:1.0;"/></g><!--MD5=[5b192137df8c53cd06f118fa9170eeac]
link dag to DataLake--><g id="link_dag_DataLake"><path d="M550.067,338.023 C533.793,355.007 512.647,377.077 496.468,393.963 " fill="none" id="dag-to-DataLake" style="stroke:#181818;stroke-width:1.0;"/><polygon fill="#181818" points="492.886,397.701,502.0013,393.9713,496.3457,394.0913,496.2258,388.4357,492.886,397.701" style="stroke:#181818;stroke-width:1.0;"/></g><!--MD5=[1bc23792fa85dc631e8854b6548be930]
link dag to DWH--><g id="link_dag_DWH"><path d="M575.968,338.023 C576.584,354.579 577.38,375.968 578.002,392.677 " fill="none" id="dag-to-DWH" style="stroke:#181818;stroke-width:1.0;"/><polygon fill="#181818" points="578.189,397.701,581.852,388.5587,578.0033,392.7044,573.8575,388.8558,578.189,397.701" style="stroke:#181818;stroke-width:1.0;"/></g><!--MD5=[622be5a4f4fdeed71e7b49fc47e8c15d]
link DWH to replica--><g id="link_DWH_replica"><path d="M579,443.344 C579,459.184 579,480.7037 579,497.603 " fill="none" id="DWH-to-replica" style="stroke:#181818;stroke-width:1.0;"/><polygon fill="#181818" points="579,502.6878,583,493.6878,579,497.6878,575,493.6878,579,502.6878" style="stroke:#181818;stroke-width:1.0;"/></g><!--MD5=[0eb29eb5dd806577bcf4453fa8f72f54]
@startuml
actor Admin
rectangle "Admin Panel" as AP {
	[nginx]
	[webserver]
	[proxy API] as API

	Admin -> nginx
	nginx -> webserver
	webserver - -> API
}

rectangle "Automation platform (Zapier)" {
	[trigger]
	[action]
	trigger -> action
}

Admin -> trigger

action -> API

rectangle ETL {
	folder "Airflow DAGs" as dag
	[Airflow API] as airflow
	API - -> airflow


	database DataLake
	database DWH
	database "DWH replica" as replica

	airflow -> dag

	dag - -> DataLake
	dag - -> DWH
	DWH - -> replica
}
@enduml

PlantUML version 1.2022.7beta2(Unknown compile time)
(GPL source distribution)
Java Runtime: Java(TM) SE Runtime Environment
JVM: Java HotSpot(TM) 64-Bit Server VM
Default Encoding: UTF-8
Language: en
Country: US
--></g></svg>