<?xml version="1.0" encoding="UTF-8" standalone="no"?><svg xmlns="http://www.w3.org/2000/svg" xmlns:xlink="http://www.w3.org/1999/xlink" contentStyleType="text/css" height="208px" preserveAspectRatio="none" style="width:903px;height:208px;background:#FFFFFF;" version="1.1" viewBox="0 0 903 208" width="903px" zoomAndPan="magnify"><defs/><g><line style="stroke:#181818;stroke-width:0.5;stroke-dasharray:5.0,5.0;" x1="35" x2="35" y1="36.2969" y2="172.8281"/><line style="stroke:#181818;stroke-width:0.5;stroke-dasharray:5.0,5.0;" x1="360" x2="360" y1="36.2969" y2="172.8281"/><line style="stroke:#181818;stroke-width:0.5;stroke-dasharray:5.0,5.0;" x1="536" x2="536" y1="36.2969" y2="172.8281"/><line style="stroke:#181818;stroke-width:0.5;stroke-dasharray:5.0,5.0;" x1="819.5" x2="819.5" y1="36.2969" y2="172.8281"/><rect fill="#E2E2F0" height="30.2969" rx="2.5" ry="2.5" style="stroke:#181818;stroke-width:0.5;" width="60" x="5" y="5"/><text fill="#000000" font-family="sans-serif" font-size="14" lengthAdjust="spacing" textLength="46" x="12" y="24.9951">Admin</text><rect fill="#E2E2F0" height="30.2969" rx="2.5" ry="2.5" style="stroke:#181818;stroke-width:0.5;" width="60" x="5" y="171.8281"/><text fill="#000000" font-family="sans-serif" font-size="14" lengthAdjust="spacing" textLength="46" x="12" y="191.8232">Admin</text><rect fill="#E2E2F0" height="30.2969" rx="2.5" ry="2.5" style="stroke:#181818;stroke-width:0.5;" width="142" x="289" y="5"/><text fill="#000000" font-family="sans-serif" font-size="14" lengthAdjust="spacing" textLength="128" x="296" y="24.9951">Input Airflow DAG</text><rect fill="#E2E2F0" height="30.2969" rx="2.5" ry="2.5" style="stroke:#181818;stroke-width:0.5;" width="142" x="289" y="171.8281"/><text fill="#000000" font-family="sans-serif" font-size="14" lengthAdjust="spacing" textLength="128" x="296" y="191.8232">Input Airflow DAG</text><rect fill="#E2E2F0" height="30.2969" rx="2.5" ry="2.5" style="stroke:#181818;stroke-width:0.5;" width="82" x="495" y="5"/><text fill="#000000" font-family="sans-serif" font-size="14" lengthAdjust="spacing" textLength="68" x="502" y="24.9951">DataLake</text><rect fill="#E2E2F0" height="30.2969" rx="2.5" ry="2.5" style="stroke:#181818;stroke-width:0.5;" width="82" x="495" y="171.8281"/><text fill="#000000" font-family="sans-serif" font-size="14" lengthAdjust="spacing" textLength="68" x="502" y="191.8232">DataLake</text><rect fill="#E2E2F0" height="30.2969" rx="2.5" ry="2.5" style="stroke:#181818;stroke-width:0.5;" width="155" x="742.5" y="5"/><text fill="#000000" font-family="sans-serif" font-size="14" lengthAdjust="spacing" textLength="141" x="749.5" y="24.9951">Output Airflow DAG</text><rect fill="#E2E2F0" height="30.2969" rx="2.5" ry="2.5" style="stroke:#181818;stroke-width:0.5;" width="155" x="742.5" y="171.8281"/><text fill="#000000" font-family="sans-serif" font-size="14" lengthAdjust="spacing" textLength="141" x="749.5" y="191.8232">Output Airflow DAG</text><line style="stroke:#181818;stroke-width:1.0;" x1="358" x2="348" y1="67.4297" y2="63.4297"/><line style="stroke:#181818;stroke-width:1.0;" x1="358" x2="348" y1="67.4297" y2="71.4297"/><line style="stroke:#181818;stroke-width:1.0;" x1="35" x2="359" y1="67.4297" y2="67.4297"/><text fill="#000000" font-family="sans-serif" font-size="13" lengthAdjust="spacing" textLength="301" x="42" y="62.3638">редактирование input-группы Airflow DAG'ов</text><line style="stroke:#181818;stroke-width:1.0;" x1="818" x2="808" y1="96.5625" y2="92.5625"/><line style="stroke:#181818;stroke-width:1.0;" x1="818" x2="808" y1="96.5625" y2="100.5625"/><line style="stroke:#181818;stroke-width:1.0;" x1="35" x2="819" y1="96.5625" y2="96.5625"/><text fill="#000000" font-family="sans-serif" font-size="13" lengthAdjust="spacing" textLength="311" x="42" y="91.4966">редактирование output-группы Airflow DAG'ов</text><line style="stroke:#181818;stroke-width:1.0;" x1="534" x2="524" y1="125.6953" y2="121.6953"/><line style="stroke:#181818;stroke-width:1.0;" x1="534" x2="524" y1="125.6953" y2="129.6953"/><line style="stroke:#181818;stroke-width:1.0;" x1="360" x2="535" y1="125.6953" y2="125.6953"/><text fill="#000000" font-family="sans-serif" font-size="13" lengthAdjust="spacing" textLength="152" x="367" y="120.6294">отправка данных в БД</text><line style="stroke:#181818;stroke-width:1.0;" x1="818" x2="808" y1="154.8281" y2="150.8281"/><line style="stroke:#181818;stroke-width:1.0;" x1="818" x2="808" y1="154.8281" y2="158.8281"/><line style="stroke:#181818;stroke-width:1.0;" x1="536" x2="819" y1="154.8281" y2="154.8281"/><text fill="#000000" font-family="sans-serif" font-size="13" lengthAdjust="spacing" textLength="260" x="543" y="149.7622">получение данных из БД в output DAG</text><!--MD5=[d530a316352cf92bb3cdf29183bdb02c]
@startuml
participant Admin
participant input_dag as "Input Airflow DAG"
participant DataLake
participant output_dag as "Output Airflow DAG"

Admin ->> input_dag: редактирование input-группы Airflow DAG'ов
Admin ->> output_dag: редактирование output-группы Airflow DAG'ов
input_dag ->> DataLake:  отправка данных в БД
DataLake ->> output_dag: получение данных из БД в output DAG
@enduml

PlantUML version 1.2022.7beta2(Unknown compile time)
(GPL source distribution)
Java Runtime: Java(TM) SE Runtime Environment
JVM: Java HotSpot(TM) 64-Bit Server VM
Default Encoding: UTF-8
Language: en
Country: US
--></g></svg>